<?xml version="1.0" standalone="no"?>
<!DOCTYPE svg PUBLIC "-//W3C//DTD SVG 20010904//EN"
 "http://www.w3.org/TR/2001/REC-SVG-20010904/DTD/svg10.dtd">
<svg version="1.0" xmlns="http://www.w3.org/2000/svg"
 width="300.000000pt" height="300.000000pt" viewBox="0 0 300.000000 300.000000"
 preserveAspectRatio="xMidYMid meet">
<metadata>
Created by potrace 1.14, written by Peter Selinger 2001-2017
</metadata>
<g transform="translate(0.000000,300.000000) scale(0.100000,-0.100000)"
fill="#000000" stroke="none">
<path d="M230 1555 l0 -405 120 0 120 0 0 170 0 170 115 0 115 0 0 60 0 60
-115 0 -115 0 0 115 0 115 230 0 230 0 0 60 0 60 -350 0 -350 0 0 -405z"/>
<path d="M1040 1555 l0 -405 60 0 60 0 0 230 0 230 55 0 55 0 0 -60 0 -60 55
0 55 0 0 -55 0 -55 60 0 60 0 0 55 0 55 60 0 60 0 0 60 0 60 55 0 55 0 0 -230
0 -230 115 0 115 0 0 405 0 405 -115 0 -115 0 0 -60 0 -60 -60 0 -60 0 0 -55
0 -55 -55 0 -55 0 0 -60 0 -60 -55 0 -55 0 0 60 0 60 -60 0 -60 0 0 55 0 55
-55 0 -55 0 0 60 0 60 -60 0 -60 0 0 -405z"/>
<path d="M2180 1900 l0 -60 -60 0 -60 0 0 -290 0 -290 60 0 60 0 0 -55 0 -55
290 0 290 0 0 230 0 230 -175 0 -175 0 0 -60 0 -60 55 0 55 0 0 -110 0 -110
-110 0 -110 0 0 285 0 285 170 0 170 0 0 -60 0 -60 60 0 60 0 0 60 0 60 -60 0
-60 0 0 60 0 60 -230 0 -230 0 0 -60z"/>
</g>
</svg>
